<svg width="1440" height="200" viewBox="0 0 1440 200" fill="none" xmlns="http://www.w3.org/2000/svg">
<g clip-path="url(#clip0_360_918)">
<g opacity="0.5">
<path d="M1380.12 83.6728C1380.09 83.6957 1380.05 83.7047 1380.01 83.6975L1364.25 80.5519C1362.41 80.1855 1360.54 80.0009 1358.67 80.0009V80.0009C1356.51 80.0009 1354.36 79.7558 1352.26 79.2702L1345.37 77.6802C1343.01 77.1352 1340.59 76.86 1338.17 76.86H1334.95L1329.79 76.2713C1326.95 75.9479 1324.09 76.005 1321.27 76.441L1312.16 77.8488L1300.7 80.3499L1290.47 81.6295L1272.03 86.337C1268.18 87.3197 1264.19 87.5774 1260.24 87.0969L1242.23 84.9013L1231.8 83.1399C1230.31 82.8895 1228.81 82.7637 1227.31 82.7637V82.7637C1225.94 82.7637 1224.58 82.6598 1223.23 82.4528L1217.85 81.6295L1208.3 79.8302C1204.11 79.0419 1199.8 79.1583 1195.67 80.1717V80.1717C1192.51 80.9445 1189.25 81.1973 1186.01 80.92L1182.98 80.6607C1180.46 80.4446 1177.92 80.5287 1175.42 80.9114L1154.93 84.0433L1141.13 86.1254C1139.28 86.4042 1137.41 86.5205 1135.54 86.4731L1126.89 86.2536L1113.95 85.3956L1099.74 83.3341C1097.72 83.0418 1095.68 82.9426 1093.65 83.038L1093.15 83.0612C1091.39 83.1439 1089.62 83.0782 1087.87 82.8849C1085.53 82.6273 1082.43 82.3109 1082.02 82.4002C1081.35 82.5456 1067.33 83.8979 1066.11 83.8979C1065.09 83.8979 1050.99 82.0703 1046.32 81.461C1045.32 81.3306 1044.32 81.2479 1043.31 81.2116L1040.07 81.0951C1037.85 81.0154 1035.63 81.168 1033.44 81.5407C1030.8 81.9908 1027.48 82.5456 1027.16 82.5456C1026.63 82.5456 1023.13 82.9091 1022.18 82.9091H1016.12C1015.17 82.9091 1008.71 83.767 1007.63 83.9852C1006.74 84.1639 1000.98 84.7234 998.925 84.9197C998.44 84.966 997.959 85.0224 997.476 85.0901L991.052 85.9918L971.066 86.8041C969.129 86.8828 967.189 86.7854 965.27 86.5131L953.605 84.8576L946.373 83.8442C946.075 83.8024 945.779 83.7651 945.48 83.732C944.417 83.6141 941.697 83.3143 940.001 83.1418V83.1418C936.149 82.75 932.235 83.6675 928.397 83.1638L921.692 82.2839L907.419 81.077L895.821 79.6519L887.058 78.5177L878.573 77.02L855.122 73.6029L848.649 72.6388C846.598 72.3335 844.536 72.6722 842.463 72.6722V72.6722C842.329 72.6722 840.41 72.611 838.633 72.5535C836.61 72.4879 834.588 72.6118 832.59 72.9346C829.115 73.4958 823.731 74.3834 822.656 74.6644C821.344 75.0071 809.611 76.0609 805.266 76.4433C804.193 76.5376 803.126 76.684 802.068 76.884L783.911 80.3166C782.258 80.6291 780.583 80.8108 778.901 80.8599L778.761 80.864C777.22 80.909 775.679 80.8426 774.148 80.6654L772.804 80.5098L770.837 80.074C768.742 79.6098 766.602 79.3757 764.457 79.3757V79.3757C764.36 79.3757 764.055 79.402 763.698 79.4364C762.682 79.5342 761.673 79.6974 760.673 79.9042L749.1 82.2984V82.2984C746.882 82.5492 744.64 82.4871 742.439 82.1138L741.901 82.0226C740.415 81.7707 738.912 81.6441 737.405 81.6441V81.6441C736.042 81.6441 734.68 81.5403 733.332 81.3338L727.955 80.5098L718.398 78.7105C714.211 77.9222 709.904 78.0387 705.766 79.052V79.052C702.61 79.8248 699.349 80.0776 696.111 79.8003L693.088 79.5413C690.562 79.325 688.02 79.4095 685.515 79.793L679.692 80.6843C677.105 81.0803 674.479 81.1477 671.872 80.9227C670.942 80.8425 670.377 80.801 670.332 80.8152C670.054 80.897 664.963 80.0862 662.977 79.765C662.452 79.6801 661.928 79.6074 661.4 79.5475L653.984 78.7068L650.802 78.3639C648.077 78.0702 645.325 78.128 642.614 78.5357L639.801 78.9588C639.372 79.0234 638.947 79.0786 638.516 79.1258C635.966 79.4049 626.66 80.4281 626.083 80.5535C625.414 80.6989 624.054 80.8443 623.8 80.8443H622.195C620.669 80.8443 619.145 80.7351 617.635 80.5176L609.434 79.3368C609.142 79.2948 608.853 79.2573 608.561 79.223C606.968 79.0366 601.534 78.3945 601.18 78.2705C600.765 78.1251 592.279 77.0636 590.942 76.8455C589.604 76.6274 582.318 76.5547 581.649 76.5547C581.126 76.5547 578.203 76.252 576.956 76.1203C576.58 76.0806 576.205 76.0336 575.831 75.9785C574.626 75.8012 571.88 75.3883 571.665 75.2751C571.478 75.1768 569.88 75.2114 568.863 75.2441C568.302 75.2622 567.743 75.3016 567.184 75.3578C566.038 75.473 564.08 75.678 563.71 75.7695C563.337 75.8717 559.832 76.2181 557.781 76.415C556.798 76.5094 555.826 76.6455 554.855 76.8224C551.998 77.3425 545.726 78.4534 543.372 78.6195C540.282 78.8376 536.916 79.6228 535.025 79.8264C533.516 80.0006 514.238 81.8059 505.973 82.5268C503.514 82.7414 501.069 83.1075 498.666 83.6732L495.254 84.4763C493.272 84.9427 491.251 85.219 489.217 85.3014L481.187 85.6268C479.252 85.7052 477.313 85.6077 475.396 85.3355L463.728 83.6798L456.497 82.6663C456.199 82.6246 455.902 82.5873 455.604 82.5542C454.54 82.4363 451.82 82.1365 450.124 81.964V81.964C446.273 81.5722 442.359 82.4897 438.52 81.9859L431.816 81.106L417.542 79.8991L405.944 78.4741L397.182 77.3399L388.696 75.8422L365.246 72.425L358.772 71.461C356.722 71.1556 354.66 71.4944 352.587 71.4944V71.4944C352.452 71.4944 350.533 71.4332 348.757 71.3757C346.734 71.3101 344.711 71.4339 342.713 71.7568C339.239 72.318 333.855 73.2056 332.78 73.4865C331.468 73.8293 319.735 74.883 315.389 75.2654C314.316 75.3598 313.249 75.5061 312.191 75.7061L294.035 79.1387C292.382 79.4513 290.706 79.633 289.024 79.6821L288.884 79.6862C287.344 79.7311 285.802 79.6648 284.271 79.4876L282.927 79.332L280.96 78.8961C278.865 78.432 276.726 78.1978 274.58 78.1978V78.1978C274.484 78.1978 274.179 78.2242 273.821 78.2586C272.805 78.3564 271.796 78.5195 270.797 78.7263L259.223 81.1206L240.638 83.2581L220.642 83.6543C219.784 83.6713 218.93 83.6543 218.074 83.599C214.803 83.3878 206.392 82.8125 206.281 82.4729C206.143 82.0512 180.824 79.5501 180.455 79.6519C180.177 79.7337 175.087 78.9229 173.1 78.6017C172.575 78.5168 172.051 78.4441 171.523 78.3842L164.107 77.5435L160.926 77.2007C158.2 76.9069 155.448 76.9647 152.737 77.3725L149.925 77.7955C149.495 77.8601 149.071 77.9153 148.639 77.9626C146.09 78.2417 136.783 79.2648 136.206 79.3902C135.538 79.5356 134.177 79.681 133.923 79.681H132.319C130.793 79.681 129.268 79.5718 127.758 79.3544L119.557 78.1735C119.266 78.1316 118.977 78.094 118.684 78.0598C117.091 77.8733 111.657 77.2312 111.303 77.1072C110.888 76.9618 102.403 75.9003 101.065 75.6822C99.7278 75.4641 92.4413 75.3914 91.7726 75.3914C91.2494 75.3914 88.3263 75.0887 87.0792 74.957C86.7031 74.9173 86.3286 74.8703 85.9544 74.8152C84.7492 74.6379 82.0038 74.225 81.7883 74.1118C81.6014 74.0135 80.0032 74.0481 78.9866 74.0808C78.425 74.0989 77.8664 74.1383 77.3074 74.1945C76.1613 74.3098 74.2037 74.5148 73.8332 74.6062C73.4604 74.7084 69.9549 75.0549 67.9047 75.2517C66.9217 75.3461 65.9495 75.4822 64.9779 75.6591C62.1213 76.1793 55.8489 77.2901 53.4956 77.4562C50.4058 77.6743 47.0392 78.4596 45.1484 78.6631C43.4927 78.8541 20.4596 81.0076 14.0308 81.5401C12.9507 81.6295 11.8727 81.7841 10.8177 82.0327V82.0327C4.47907 83.5261 0 89.183 0 95.6952V99.2896C0 109.549 8.31685 117.866 18.5762 117.866H489.356C489.669 117.866 489.923 118.12 489.923 118.433V118.433C489.923 118.746 490.177 119 490.49 119H1427.41C1434.36 119 1440 113.363 1440 106.409V106.409C1440 100.452 1435.82 95.3094 1429.99 94.0865L1380.22 83.6483C1380.18 83.6406 1380.15 83.6496 1380.12 83.6728V83.6728Z" fill="#DEE6E5" fill-opacity="0.5"/>
<path d="M966.217 98.4932C966.217 98.4838 966.216 98.4763 966.207 98.4762C964.935 98.461 934.405 95.7524 932.471 95.5396C930.533 95.3263 927.059 94.5642 923.868 94.3508C921.406 94.1861 914.808 93.0716 911.922 92.5711C910.998 92.4108 910.073 92.2874 909.139 92.202C907.044 92.0104 903.297 91.6583 902.906 91.5564C902.5 91.4543 900.387 91.2474 899.227 91.1388C898.718 91.0911 898.209 91.0577 897.698 91.0416C896.658 91.0087 894.905 90.9694 894.707 91.0687C894.484 91.1808 891.59 91.5958 890.373 91.7667C890.017 91.8167 889.663 91.8593 889.305 91.8955C888.048 92.0228 884.972 92.3287 884.428 92.3287C883.741 92.3287 876.229 92.3998 874.856 92.6132C873.462 92.8266 864.718 93.8732 864.294 94.0155C863.93 94.1374 858.268 94.7673 856.659 94.9445C856.375 94.9759 856.094 95.0103 855.811 95.049L844.988 96.5253H840.969C840.686 96.5253 839.293 96.383 838.606 96.2408C838.012 96.1176 828.343 95.1102 825.764 94.8426C825.342 94.7988 824.926 94.7473 824.506 94.6869L821.269 94.2216C818.674 93.8485 816.042 93.7958 813.434 94.0646L809.869 94.4321L802.168 95.2551C801.661 95.3093 801.156 95.3756 800.652 95.4528C798.644 95.7606 793.305 96.5671 793.027 96.4846C792.663 96.383 766.551 98.8319 766.43 99.2485C766.315 99.5871 757.49 100.161 754.189 100.364C753.37 100.414 752.55 100.43 751.73 100.414L731.029 100.021L711.864 97.9275L699.842 95.5606C698.877 95.3706 697.904 95.2221 696.925 95.1316C696.509 95.0932 696.139 95.0621 696.031 95.0621V95.0621C693.816 95.0621 691.607 95.2937 689.44 95.7533L687.428 96.1798L683.672 96.5964L680.952 96.521C679.348 96.4765 677.75 96.3114 676.171 96.0272L657.144 92.6026C656.13 92.4201 655.114 92.2873 654.087 92.2017C649.713 91.8367 637.408 90.7889 636.033 90.4387C634.892 90.155 629.125 89.2542 625.561 88.7082C623.659 88.4168 621.738 88.3049 619.815 88.3642C617.923 88.4225 615.772 88.4877 615.616 88.4877V88.4877C613.477 88.4877 611.347 88.1534 609.229 88.4548L602.57 89.4023L578.417 92.7555L569.673 94.2187L560.646 95.3364L548.711 96.7387L533.989 97.9275L527.088 98.7861C523.122 99.2796 519.087 98.3966 515.107 98.7608V98.7608C513.315 98.9329 510.431 99.2374 509.384 99.3486C509.119 99.3767 508.856 99.4082 508.592 99.4431L501.072 100.437L488.805 102.09C486.983 102.336 485.143 102.424 483.306 102.354L462.459 101.555L455.781 100.669C455.333 100.609 454.887 100.56 454.437 100.519C452.39 100.333 446.316 99.7727 445.395 99.6041C444.284 99.3908 437.62 98.5575 436.65 98.5575H430.41C429.441 98.5575 425.826 98.2121 425.281 98.2121C424.946 98.2121 421.311 97.6343 418.552 97.1878C416.471 96.8511 414.365 96.7139 412.258 96.7858L408.525 96.9131C407.565 96.9458 406.613 97.0212 405.66 97.1393C400.96 97.722 386.189 99.5432 385.154 99.5432C383.922 99.5432 369.463 98.2121 368.776 98.08C368.342 97.9901 364.969 98.3217 362.542 98.5783C360.869 98.7551 359.188 98.8146 357.508 98.7397L356.559 98.6974C354.624 98.6111 352.685 98.7008 350.765 98.9652L335.879 101.017L322.55 101.86L313.426 102.08C311.649 102.123 309.872 102.018 308.113 101.766L293.672 99.6956L272.25 96.5786C269.871 96.2326 267.461 96.1556 265.066 96.3491L261.568 96.6316C258.272 96.8978 254.907 96.6404 251.686 95.8905V95.8905C247.452 94.9046 242.997 94.777 238.718 95.5443L228.826 97.3179L223.291 98.1283C221.894 98.3329 220.484 98.4356 219.072 98.4356V98.4356C217.526 98.4356 215.983 98.5586 214.457 98.8034L203.704 100.529L184.669 102.735C180.91 103.171 177.104 102.937 173.426 102.043L153.985 97.3179L143.423 96.0579L131.629 93.609L121.908 92.1797C119.231 91.7861 116.515 91.7336 113.825 92.0234L108.163 92.6335H104.548C102.239 92.6335 99.9371 92.8834 97.682 93.3788L90.3245 94.9951C88.1541 95.4719 85.9385 95.7124 83.7164 95.7124V95.7124C81.7893 95.7124 79.8664 95.8933 77.9731 96.2526L61.6545 99.3501L9.87922 109.675C4.13561 110.821 -1.71428e-05 115.862 -1.71428e-05 121.719V121.719C-1.71428e-05 128.502 5.49838 134 12.281 134H960.88C970.887 134 979 125.887 979 115.88V107.922C979 104.094 976.344 100.777 972.608 99.9395L966.23 98.5097C966.222 98.508 966.217 98.5011 966.217 98.4932V98.4932Z" fill="#AFBAB0" fill-opacity="0.7"/>
<path d="M18.2544 112.512C18.2544 112.498 18.2554 112.487 18.2692 112.487C20.0948 112.463 63.682 108.46 66.4424 108.146C69.2108 107.83 74.1709 106.704 78.7273 106.388C82.4088 106.133 92.5671 104.339 96.332 103.659C97.2862 103.487 98.2398 103.355 99.2052 103.264C102.031 102.998 108.067 102.418 108.661 102.257C109.278 102.097 112.658 101.76 114.217 101.611C114.744 101.56 115.269 101.525 115.798 101.506C117.216 101.457 120.067 101.379 120.369 101.536C120.701 101.709 125.185 102.369 126.769 102.599C127.137 102.652 127.501 102.697 127.871 102.736C129.502 102.908 134.238 103.399 135.048 103.399C136.028 103.399 146.756 103.504 148.717 103.82C150.706 104.135 163.193 105.682 163.799 105.892C164.331 106.077 172.826 107.052 174.867 107.285C175.161 107.318 175.452 107.355 175.745 107.397L191.368 109.603H197.107C197.51 109.603 199.5 109.392 200.481 109.182C201.35 108.995 215.819 107.437 219.07 107.088C219.507 107.041 219.933 106.987 220.367 106.922L226.776 105.968C229.46 105.569 232.183 105.512 234.882 105.8L241.517 106.508L252.814 107.758C253.338 107.816 253.858 107.887 254.379 107.97C256.97 108.382 265.155 109.669 265.568 109.543C266.087 109.392 303.374 113.012 303.547 113.628C303.717 114.147 317.251 115.039 321.512 115.307C322.359 115.36 323.207 115.377 324.055 115.361L354.1 114.77L381.467 111.675L399.207 108.06C400.203 107.857 401.208 107.7 402.219 107.599C403.017 107.52 403.872 107.44 404.076 107.44H405.363C407.67 107.44 409.971 107.689 412.224 108.184L416.361 109.092L419.447 109.446C420.963 109.62 422.49 109.686 424.016 109.642L426.557 109.569C428.216 109.521 429.869 109.345 431.5 109.041L460.208 103.692C461.255 103.497 462.304 103.355 463.366 103.263C468.985 102.78 487.721 101.141 489.753 100.605C491.51 100.153 500.942 98.6407 505.836 97.8682C507.802 97.5578 509.786 97.4381 511.775 97.5019C514.668 97.5947 518.652 97.721 518.908 97.721V97.721C521.964 97.721 525.005 97.227 528.029 97.6724L537.537 99.0729L572.027 104.03L584.514 106.193L597.404 107.845L614.447 109.918L635.47 111.675L647.617 113.24C651.764 113.774 655.956 113.267 660.123 112.926C660.945 112.859 661.741 112.842 662.434 112.907C665.089 113.171 669.422 113.646 670.763 113.793C671.037 113.824 671.308 113.857 671.581 113.895L682.476 115.386L701.07 117.98C702.955 118.243 704.859 118.337 706.76 118.262L737.614 117.038L747.415 115.692C747.879 115.628 748.337 115.575 748.803 115.531C751.42 115.285 760.624 114.411 761.982 114.154C763.568 113.839 773.084 112.607 774.469 112.607H783.38C784.764 112.607 789.926 112.096 790.704 112.096C791.234 112.096 797.558 111.046 801.546 110.375C803.696 110.013 805.875 109.867 808.055 109.944L815.198 110.196C816.19 110.231 817.167 110.31 818.152 110.437C824.136 111.206 846.482 114.064 848.005 114.064C849.764 114.064 870.412 112.096 871.393 111.901C872.073 111.755 877.829 112.362 881.284 112.747C883.013 112.939 884.753 113.002 886.492 112.922L889.981 112.761C891.984 112.668 893.991 112.764 895.976 113.047L918.369 116.242L937.402 117.489L951.481 117.84C953.319 117.886 955.158 117.774 956.977 117.504L978.64 114.289L1010.64 109.469C1013.1 109.099 1015.59 109.016 1018.07 109.224L1026.44 109.923C1029.85 110.208 1033.28 109.945 1036.61 109.144L1041.22 108.032C1045.59 106.978 1050.14 106.857 1054.56 107.678L1071.24 110.774L1079.76 112.065C1081.34 112.306 1082.95 112.427 1084.55 112.427H1085.84C1087.6 112.427 1089.35 112.571 1091.09 112.859L1107.11 115.521L1136.53 119.051C1140.42 119.518 1144.36 119.267 1148.15 118.312L1178.11 110.774L1193.19 108.912L1210.04 105.292L1225.5 102.937C1228.27 102.516 1231.08 102.46 1233.87 102.77L1243.54 103.85H1250.07C1252.46 103.85 1254.84 104.117 1257.17 104.646L1270.18 107.604C1272.51 108.134 1274.89 108.401 1277.27 108.401H1279.48C1281.55 108.401 1283.61 108.602 1285.65 109.001L1309.96 113.778L1383.47 128.954C1391.93 130.701 1398 138.151 1398 146.789V146.789C1398 156.847 1389.85 165 1379.79 165H26.8776C12.0335 165 0 152.966 0 138.122V126.137C0 120.651 3.78311 115.89 9.12718 114.65L18.2349 112.536C18.2463 112.534 18.2544 112.523 18.2544 112.512V112.512Z" fill="#ABC5BC" fill-opacity="0.9"/>
<path d="M0 49H5.74138C12.5496 49 19.3269 49.9148 25.8915 51.7199L67 63.0237L138 81.8902L187.262 92.9714C190.403 93.6779 193.632 93.9064 196.841 93.6492L247.11 89.6208C253.24 89.1295 259.382 90.4151 264.8 93.3236L271.587 96.9664C278.608 100.735 286.784 101.749 294.513 99.8083L307.596 96.5237C314.039 94.9062 320.825 95.3337 327.014 97.7469L362.525 111.594C370.21 114.591 378.755 114.504 386.378 111.352L387.456 110.906C393.661 108.34 400.516 107.791 407.05 109.337L456 120.916L494.73 130.449C496.904 130.984 499.128 131.289 501.366 131.36L547 132.804L620.5 129.444L684 123.468L723.599 120.909C726.19 120.742 728.792 120.89 731.347 121.351L747.691 124.302C754.893 125.602 762.309 123.8 768.112 119.342V119.342C774.075 114.76 781.732 112.99 789.101 114.491L810.5 118.848L831.26 122.4C835.38 123.105 839.598 122.996 843.676 122.08L855.675 119.382C859.52 118.518 863.153 116.894 866.362 114.607L877.251 106.845C882.605 103.028 889.924 103.592 894.631 108.183V108.183C897.973 111.443 902.754 112.76 907.293 111.67L923.152 107.864C926.365 107.093 929.438 105.83 932.264 104.118L951.326 92.5716C956.97 89.1527 963.534 87.5624 970.117 88.0184L1002.92 90.2907C1006.61 90.5466 1010.32 90.1598 1013.88 89.1476L1052.57 78.1486C1056.49 77.035 1060.58 76.6793 1064.63 77.1006L1136.01 84.5246C1138.99 84.8344 1142 84.7246 1144.94 84.1984L1206.62 73.19C1208.87 72.7886 1211.15 72.6291 1213.43 72.7143L1254.87 74.261C1256.76 74.3313 1258.65 74.2348 1260.51 73.9724L1338.5 63.0237L1386 53.4611C1406.94 50.3993 1416.5 49 1440 49C1457.15 49 1449.27 129.445 1443.75 172.902C1441.77 188.55 1428.37 200 1412.59 200H32C14.3269 200 0 185.673 0 168L0 49Z" fill="#86A89C"/>
<path d="M0 76C7.62843 76 19.9267 80.8507 23.4979 82.3292C24.1702 82.6075 24.8231 82.9197 25.4689 83.255L60.3695 101.381C66.3068 104.465 73.0613 105.61 79.6832 104.656L126.831 97.8615C132.506 97.0436 138.297 97.7656 143.597 99.9521L171.908 111.63C180.246 115.069 189.648 114.83 197.801 110.971L212.216 104.148C220.066 100.432 229.089 100.066 237.214 103.135L269.459 115.315C275.824 117.719 282.926 117.184 288.859 113.853V113.853C294.666 110.592 301.601 110.007 307.872 112.249L335.781 122.224C341.349 124.214 347.489 123.835 352.77 121.175V121.175C358.028 118.527 364.138 118.139 369.688 120.101L422.501 138.768C429.3 141.172 436.712 141.208 443.535 138.871L444.845 138.422C452.347 135.852 460.535 136.159 467.824 139.284L480.832 144.86C485.35 146.797 490.512 146.517 494.793 144.102V144.102C501.088 140.553 508.99 141.736 513.97 146.973L518.842 152.097C523.125 156.601 528.939 159.336 535.14 159.764L620.444 165.641C622.477 165.781 624.518 165.726 626.54 165.478L684.041 158.424C686.009 158.182 687.951 157.758 689.841 157.157L728.785 144.774C733.53 143.265 738.561 142.884 743.478 143.662L770.91 147.998C778.089 149.133 785.44 147.79 791.754 144.191L792.791 143.6C799.078 140.016 806.393 138.669 813.544 139.778L830.295 142.377C837.238 143.454 844.343 142.216 850.512 138.854L863.936 131.54C868.89 128.84 874.471 127.498 880.112 127.65L958 129.755L1072.59 122.036C1075.84 121.816 1079.05 121.101 1082.08 119.913L1172.08 84.7466C1178.83 82.11 1186.27 81.8408 1193.19 83.983L1248.28 101.039C1254.6 102.995 1261.38 102.944 1267.67 100.893L1291.65 93.0712C1297.74 91.0849 1304.29 90.9725 1310.45 92.7486L1354.73 105.526C1363.49 108.054 1372.91 106.724 1380.63 101.871L1406.5 85.6084L1421.77 78.7845C1425.88 76.9488 1430.33 76 1434.82 76H1440V168C1440 185.673 1425.67 200 1408 200H29.7616C12.9873 200 -0.932483 187.065 -1.86436 170.316C-3.90542 133.633 -6.13573 76 0 76Z" fill="#568674"/>
</g>
<g opacity="0.5">
<path d="M1380.12 83.6728C1380.09 83.6957 1380.05 83.7047 1380.01 83.6975L1364.25 80.5519C1362.41 80.1855 1360.54 80.0009 1358.67 80.0009V80.0009C1356.51 80.0009 1354.36 79.7558 1352.26 79.2702L1345.37 77.6802C1343.01 77.1352 1340.59 76.86 1338.17 76.86H1334.95L1329.79 76.2713C1326.95 75.9479 1324.09 76.005 1321.27 76.441L1312.16 77.8488L1300.7 80.3499L1290.47 81.6295L1272.03 86.337C1268.18 87.3197 1264.19 87.5774 1260.24 87.0969L1242.23 84.9013L1231.8 83.1399C1230.31 82.8895 1228.81 82.7637 1227.31 82.7637V82.7637C1225.94 82.7637 1224.58 82.6598 1223.23 82.4528L1217.85 81.6295L1208.3 79.8302C1204.11 79.0419 1199.8 79.1583 1195.67 80.1717V80.1717C1192.51 80.9445 1189.25 81.1973 1186.01 80.92L1182.98 80.6607C1180.46 80.4446 1177.92 80.5287 1175.42 80.9114L1154.93 84.0433L1141.13 86.1254C1139.28 86.4042 1137.41 86.5205 1135.54 86.4731L1126.89 86.2536L1113.95 85.3956L1099.74 83.3341C1097.72 83.0418 1095.68 82.9426 1093.65 83.038L1093.15 83.0612C1091.39 83.1439 1089.62 83.0782 1087.87 82.8849C1085.53 82.6273 1082.43 82.3109 1082.02 82.4002C1081.35 82.5456 1067.33 83.8979 1066.11 83.8979C1065.09 83.8979 1050.99 82.0703 1046.32 81.461C1045.32 81.3306 1044.32 81.2479 1043.31 81.2116L1040.07 81.0951C1037.85 81.0154 1035.63 81.168 1033.44 81.5407C1030.8 81.9908 1027.48 82.5456 1027.16 82.5456C1026.63 82.5456 1023.13 82.9091 1022.18 82.9091H1016.12C1015.17 82.9091 1008.71 83.767 1007.63 83.9852C1006.74 84.1639 1000.98 84.7234 998.925 84.9197C998.44 84.966 997.959 85.0224 997.476 85.0901L991.052 85.9918L971.066 86.8041C969.129 86.8828 967.189 86.7854 965.27 86.5131L953.605 84.8576L946.373 83.8442C946.075 83.8024 945.779 83.7651 945.48 83.732C944.417 83.6141 941.697 83.3143 940.001 83.1418V83.1418C936.149 82.75 932.235 83.6675 928.397 83.1638L921.692 82.2839L907.419 81.077L895.821 79.6519L887.058 78.5177L878.573 77.02L855.122 73.6029L848.649 72.6388C846.598 72.3335 844.536 72.6722 842.463 72.6722V72.6722C842.329 72.6722 840.41 72.611 838.633 72.5535C836.61 72.4879 834.588 72.6118 832.59 72.9346C829.115 73.4958 823.731 74.3834 822.656 74.6644C821.344 75.0071 809.611 76.0609 805.266 76.4433C804.193 76.5376 803.126 76.684 802.068 76.884L783.911 80.3166C782.258 80.6291 780.583 80.8108 778.901 80.8599L778.761 80.864C777.22 80.909 775.679 80.8426 774.148 80.6654L772.804 80.5098L770.837 80.074C768.742 79.6098 766.602 79.3757 764.457 79.3757V79.3757C764.36 79.3757 764.055 79.402 763.698 79.4364C762.682 79.5342 761.673 79.6974 760.673 79.9042L749.1 82.2984V82.2984C746.882 82.5492 744.64 82.4871 742.439 82.1138L741.901 82.0226C740.415 81.7707 738.912 81.6441 737.405 81.6441V81.6441C736.042 81.6441 734.68 81.5403 733.332 81.3338L727.955 80.5098L718.398 78.7105C714.211 77.9222 709.904 78.0387 705.766 79.052V79.052C702.61 79.8248 699.349 80.0776 696.111 79.8003L693.088 79.5413C690.562 79.325 688.02 79.4095 685.515 79.793L679.692 80.6843C677.105 81.0803 674.479 81.1477 671.872 80.9227C670.942 80.8425 670.377 80.801 670.332 80.8152C670.054 80.897 664.963 80.0862 662.977 79.765C662.452 79.6801 661.928 79.6074 661.4 79.5475L653.984 78.7068L650.802 78.3639C648.077 78.0702 645.325 78.128 642.614 78.5357L639.801 78.9588C639.372 79.0234 638.947 79.0786 638.516 79.1258C635.966 79.4049 626.66 80.4281 626.083 80.5535C625.414 80.6989 624.054 80.8443 623.8 80.8443H622.195C620.669 80.8443 619.145 80.7351 617.635 80.5176L609.434 79.3368C609.142 79.2948 608.853 79.2573 608.561 79.223C606.968 79.0366 601.534 78.3945 601.18 78.2705C600.765 78.1251 592.279 77.0636 590.942 76.8455C589.604 76.6274 582.318 76.5547 581.649 76.5547C581.126 76.5547 578.203 76.252 576.956 76.1203C576.58 76.0806 576.205 76.0336 575.831 75.9785C574.626 75.8012 571.88 75.3883 571.665 75.2751C571.478 75.1768 569.88 75.2114 568.863 75.2441C568.302 75.2622 567.743 75.3016 567.184 75.3578C566.038 75.473 564.08 75.678 563.71 75.7695C563.337 75.8717 559.832 76.2181 557.781 76.415C556.798 76.5094 555.826 76.6455 554.855 76.8224C551.998 77.3425 545.726 78.4534 543.372 78.6195C540.282 78.8376 536.916 79.6228 535.025 79.8264C533.516 80.0006 514.238 81.8059 505.973 82.5268C503.514 82.7414 501.069 83.1075 498.666 83.6732L495.254 84.4763C493.272 84.9427 491.251 85.219 489.217 85.3014L481.187 85.6268C479.252 85.7052 477.313 85.6077 475.396 85.3355L463.728 83.6798L456.497 82.6663C456.199 82.6246 455.902 82.5873 455.604 82.5542C454.54 82.4363 451.82 82.1365 450.124 81.964V81.964C446.273 81.5722 442.359 82.4897 438.52 81.9859L431.816 81.106L417.542 79.8991L405.944 78.4741L397.182 77.3399L388.696 75.8422L365.246 72.425L358.772 71.461C356.722 71.1556 354.66 71.4944 352.587 71.4944V71.4944C352.452 71.4944 350.533 71.4332 348.757 71.3757C346.734 71.3101 344.711 71.4339 342.713 71.7568C339.239 72.318 333.855 73.2056 332.78 73.4865C331.468 73.8293 319.735 74.883 315.389 75.2654C314.316 75.3598 313.249 75.5061 312.191 75.7061L294.035 79.1387C292.382 79.4513 290.706 79.633 289.024 79.6821L288.884 79.6862C287.344 79.7311 285.802 79.6648 284.271 79.4876L282.927 79.332L280.96 78.8961C278.865 78.432 276.726 78.1978 274.58 78.1978V78.1978C274.484 78.1978 274.179 78.2242 273.821 78.2586C272.805 78.3564 271.796 78.5195 270.797 78.7263L259.223 81.1206L240.638 83.2581L220.642 83.6543C219.784 83.6713 218.93 83.6543 218.074 83.599C214.803 83.3878 206.392 82.8125 206.281 82.4729C206.143 82.0512 180.824 79.5501 180.455 79.6519C180.177 79.7337 175.087 78.9229 173.1 78.6017C172.575 78.5168 172.051 78.4441 171.523 78.3842L164.107 77.5435L160.926 77.2007C158.2 76.9069 155.448 76.9647 152.737 77.3725L149.925 77.7955C149.495 77.8601 149.071 77.9153 148.639 77.9626C146.09 78.2417 136.783 79.2648 136.206 79.3902C135.538 79.5356 134.177 79.681 133.923 79.681H132.319C130.793 79.681 129.268 79.5718 127.758 79.3544L119.557 78.1735C119.266 78.1316 118.977 78.094 118.684 78.0598C117.091 77.8733 111.657 77.2312 111.303 77.1072C110.888 76.9618 102.403 75.9003 101.065 75.6822C99.7278 75.4641 92.4413 75.3914 91.7726 75.3914C91.2494 75.3914 88.3263 75.0887 87.0792 74.957C86.7031 74.9173 86.3286 74.8703 85.9544 74.8152C84.7492 74.6379 82.0038 74.225 81.7883 74.1118C81.6014 74.0135 80.0032 74.0481 78.9866 74.0808C78.425 74.0989 77.8664 74.1383 77.3074 74.1945C76.1613 74.3098 74.2037 74.5148 73.8332 74.6062C73.4604 74.7084 69.9549 75.0549 67.9047 75.2517C66.9217 75.3461 65.9495 75.4822 64.9779 75.6591C62.1213 76.1793 55.8489 77.2901 53.4956 77.4562C50.4058 77.6743 47.0392 78.4596 45.1484 78.6631C43.4927 78.8541 20.4596 81.0076 14.0308 81.5401C12.9507 81.6295 11.8727 81.7841 10.8177 82.0327V82.0327C4.47907 83.5261 0 89.183 0 95.6952V99.2896C0 109.549 8.31685 117.866 18.5762 117.866H489.356C489.669 117.866 489.923 118.12 489.923 118.433V118.433C489.923 118.746 490.177 119 490.49 119H1427.41C1434.36 119 1440 113.363 1440 106.409V106.409C1440 100.452 1435.82 95.3094 1429.99 94.0865L1380.22 83.6483C1380.18 83.6406 1380.15 83.6496 1380.12 83.6728V83.6728Z" fill="#DEE6E5" fill-opacity="0.5"/>
<path d="M966.217 98.4932C966.217 98.4838 966.216 98.4763 966.207 98.4762C964.935 98.461 934.405 95.7524 932.471 95.5396C930.533 95.3263 927.059 94.5642 923.868 94.3508C921.406 94.1861 914.808 93.0716 911.922 92.5711C910.998 92.4108 910.073 92.2874 909.139 92.202C907.044 92.0104 903.297 91.6583 902.906 91.5564C902.5 91.4543 900.387 91.2474 899.227 91.1388C898.718 91.0911 898.209 91.0577 897.698 91.0416C896.658 91.0087 894.905 90.9694 894.707 91.0687C894.484 91.1808 891.59 91.5958 890.373 91.7667C890.017 91.8167 889.663 91.8593 889.305 91.8955C888.048 92.0228 884.972 92.3287 884.428 92.3287C883.741 92.3287 876.229 92.3998 874.856 92.6132C873.462 92.8266 864.718 93.8732 864.294 94.0155C863.93 94.1374 858.268 94.7673 856.659 94.9445C856.375 94.9759 856.094 95.0103 855.811 95.049L844.988 96.5253H840.969C840.686 96.5253 839.293 96.383 838.606 96.2408C838.012 96.1176 828.343 95.1102 825.764 94.8426C825.342 94.7988 824.926 94.7473 824.506 94.6869L821.269 94.2216C818.674 93.8485 816.042 93.7958 813.434 94.0646L809.869 94.4321L802.168 95.2551C801.661 95.3093 801.156 95.3756 800.652 95.4528C798.644 95.7606 793.305 96.5671 793.027 96.4846C792.663 96.383 766.551 98.8319 766.43 99.2485C766.315 99.5871 757.49 100.161 754.189 100.364C753.37 100.414 752.55 100.43 751.73 100.414L731.029 100.021L711.864 97.9275L699.842 95.5606C698.877 95.3706 697.904 95.2221 696.925 95.1316C696.509 95.0932 696.139 95.0621 696.031 95.0621V95.0621C693.816 95.0621 691.607 95.2937 689.44 95.7533L687.428 96.1798L683.672 96.5964L680.952 96.521C679.348 96.4765 677.75 96.3114 676.171 96.0272L657.144 92.6026C656.13 92.4201 655.114 92.2873 654.087 92.2017C649.713 91.8367 637.408 90.7889 636.033 90.4387C634.892 90.155 629.125 89.2542 625.561 88.7082C623.659 88.4168 621.738 88.3049 619.815 88.3642C617.923 88.4225 615.772 88.4877 615.616 88.4877V88.4877C613.477 88.4877 611.347 88.1534 609.229 88.4548L602.57 89.4023L578.417 92.7555L569.673 94.2187L560.646 95.3364L548.711 96.7387L533.989 97.9275L527.088 98.7861C523.122 99.2796 519.087 98.3966 515.107 98.7608V98.7608C513.315 98.9329 510.431 99.2374 509.384 99.3486C509.119 99.3767 508.856 99.4082 508.592 99.4431L501.072 100.437L488.805 102.09C486.983 102.336 485.143 102.424 483.306 102.354L462.459 101.555L455.781 100.669C455.333 100.609 454.887 100.56 454.437 100.519C452.39 100.333 446.316 99.7727 445.395 99.6041C444.284 99.3908 437.62 98.5575 436.65 98.5575H430.41C429.441 98.5575 425.826 98.2121 425.281 98.2121C424.946 98.2121 421.311 97.6343 418.552 97.1878C416.471 96.8511 414.365 96.7139 412.258 96.7858L408.525 96.9131C407.565 96.9458 406.613 97.0212 405.66 97.1393C400.96 97.722 386.189 99.5432 385.154 99.5432C383.922 99.5432 369.463 98.2121 368.776 98.08C368.342 97.9901 364.969 98.3217 362.542 98.5783C360.869 98.7551 359.188 98.8146 357.508 98.7397L356.559 98.6974C354.624 98.6111 352.685 98.7008 350.765 98.9652L335.879 101.017L322.55 101.86L313.426 102.08C311.649 102.123 309.872 102.018 308.113 101.766L293.672 99.6956L272.25 96.5786C269.871 96.2326 267.461 96.1556 265.066 96.3491L261.568 96.6316C258.272 96.8978 254.907 96.6404 251.686 95.8905V95.8905C247.452 94.9046 242.997 94.777 238.718 95.5443L228.826 97.3179L223.291 98.1283C221.894 98.3329 220.484 98.4356 219.072 98.4356V98.4356C217.526 98.4356 215.983 98.5586 214.457 98.8034L203.704 100.529L184.669 102.735C180.91 103.171 177.104 102.937 173.426 102.043L153.985 97.3179L143.423 96.0579L131.629 93.609L121.908 92.1797C119.231 91.7861 116.515 91.7336 113.825 92.0234L108.163 92.6335H104.548C102.239 92.6335 99.9371 92.8834 97.682 93.3788L90.3245 94.9951C88.1541 95.4719 85.9385 95.7124 83.7164 95.7124V95.7124C81.7893 95.7124 79.8664 95.8933 77.9731 96.2526L61.6545 99.3501L9.87922 109.675C4.13561 110.821 -1.71428e-05 115.862 -1.71428e-05 121.719V121.719C-1.71428e-05 128.502 5.49838 134 12.281 134H960.88C970.887 134 979 125.887 979 115.88V107.922C979 104.094 976.344 100.777 972.608 99.9395L966.23 98.5097C966.222 98.508 966.217 98.5011 966.217 98.4932V98.4932Z" fill="#AFBAB0" fill-opacity="0.7"/>
<path d="M18.2544 112.512C18.2544 112.498 18.2554 112.487 18.2692 112.487C20.0948 112.463 63.682 108.46 66.4424 108.146C69.2108 107.83 74.1709 106.704 78.7273 106.388C82.4088 106.133 92.5671 104.339 96.332 103.659C97.2862 103.487 98.2398 103.355 99.2052 103.264C102.031 102.998 108.067 102.418 108.661 102.257C109.278 102.097 112.658 101.76 114.217 101.611C114.744 101.56 115.269 101.525 115.798 101.506C117.216 101.457 120.067 101.379 120.369 101.536C120.701 101.709 125.185 102.369 126.769 102.599C127.137 102.652 127.501 102.697 127.871 102.736C129.502 102.908 134.238 103.399 135.048 103.399C136.028 103.399 146.756 103.504 148.717 103.82C150.706 104.135 163.193 105.682 163.799 105.892C164.331 106.077 172.826 107.052 174.867 107.285C175.161 107.318 175.452 107.355 175.745 107.397L191.368 109.603H197.107C197.51 109.603 199.5 109.392 200.481 109.182C201.35 108.995 215.819 107.437 219.07 107.088C219.507 107.041 219.933 106.987 220.367 106.922L226.776 105.968C229.46 105.569 232.183 105.512 234.882 105.8L241.517 106.508L252.814 107.758C253.338 107.816 253.858 107.887 254.379 107.97C256.97 108.382 265.155 109.669 265.568 109.543C266.087 109.392 303.374 113.012 303.547 113.628C303.717 114.147 317.251 115.039 321.512 115.307C322.359 115.36 323.207 115.377 324.055 115.361L354.1 114.77L381.467 111.675L399.207 108.06C400.203 107.857 401.208 107.7 402.219 107.599C403.017 107.52 403.872 107.44 404.076 107.44H405.363C407.67 107.44 409.971 107.689 412.224 108.184L416.361 109.092L419.447 109.446C420.963 109.62 422.49 109.686 424.016 109.642L426.557 109.569C428.216 109.521 429.869 109.345 431.5 109.041L460.208 103.692C461.255 103.497 462.304 103.355 463.366 103.263C468.985 102.78 487.721 101.141 489.753 100.605C491.51 100.153 500.942 98.6407 505.836 97.8682C507.802 97.5578 509.786 97.4381 511.775 97.5019C514.668 97.5947 518.652 97.721 518.908 97.721V97.721C521.964 97.721 525.005 97.227 528.029 97.6724L537.537 99.0729L572.027 104.03L584.514 106.193L597.404 107.845L614.447 109.918L635.47 111.675L647.617 113.24C651.764 113.774 655.956 113.267 660.123 112.926C660.945 112.859 661.741 112.842 662.434 112.907C665.089 113.171 669.422 113.646 670.763 113.793C671.037 113.824 671.308 113.857 671.581 113.895L682.476 115.386L701.07 117.98C702.955 118.243 704.859 118.337 706.76 118.262L737.614 117.038L747.415 115.692C747.879 115.628 748.337 115.575 748.803 115.531C751.42 115.285 760.624 114.411 761.982 114.154C763.568 113.839 773.084 112.607 774.469 112.607H783.38C784.764 112.607 789.926 112.096 790.704 112.096C791.234 112.096 797.558 111.046 801.546 110.375C803.696 110.013 805.875 109.867 808.055 109.944L815.198 110.196C816.19 110.231 817.167 110.31 818.152 110.437C824.136 111.206 846.482 114.064 848.005 114.064C849.764 114.064 870.412 112.096 871.393 111.901C872.073 111.755 877.829 112.362 881.284 112.747C883.013 112.939 884.753 113.002 886.492 112.922L889.981 112.761C891.984 112.668 893.991 112.764 895.976 113.047L918.369 116.242L937.402 117.489L951.481 117.84C953.319 117.886 955.158 117.774 956.977 117.504L978.64 114.289L1010.64 109.469C1013.1 109.099 1015.59 109.016 1018.07 109.224L1026.44 109.923C1029.85 110.208 1033.28 109.945 1036.61 109.144L1041.22 108.032C1045.59 106.978 1050.14 106.857 1054.56 107.678L1071.24 110.774L1079.76 112.065C1081.34 112.306 1082.95 112.427 1084.55 112.427H1085.84C1087.6 112.427 1089.35 112.571 1091.09 112.859L1107.11 115.521L1136.53 119.051C1140.42 119.518 1144.36 119.267 1148.15 118.312L1178.11 110.774L1193.19 108.912L1210.04 105.292L1225.5 102.937C1228.27 102.516 1231.08 102.46 1233.87 102.77L1243.54 103.85H1250.07C1252.46 103.85 1254.84 104.117 1257.17 104.646L1270.18 107.604C1272.51 108.134 1274.89 108.401 1277.27 108.401H1279.48C1281.55 108.401 1283.61 108.602 1285.65 109.001L1309.96 113.778L1383.47 128.954C1391.93 130.701 1398 138.151 1398 146.789V146.789C1398 156.847 1389.85 165 1379.79 165H26.8776C12.0335 165 0 152.966 0 138.122V126.137C0 120.651 3.78311 115.89 9.12718 114.65L18.2349 112.536C18.2463 112.534 18.2544 112.523 18.2544 112.512V112.512Z" fill="#ABC5BC" fill-opacity="0.9"/>
<path d="M0 49H5.74138C12.5496 49 19.3269 49.9148 25.8915 51.7199L67 63.0237L138 81.8902L187.262 92.9714C190.403 93.6779 193.632 93.9064 196.841 93.6492L247.11 89.6208C253.24 89.1295 259.382 90.4151 264.8 93.3236L271.587 96.9664C278.608 100.735 286.784 101.749 294.513 99.8083L307.596 96.5237C314.039 94.9062 320.825 95.3337 327.014 97.7469L362.525 111.594C370.21 114.591 378.755 114.504 386.378 111.352L387.456 110.906C393.661 108.34 400.516 107.791 407.05 109.337L456 120.916L494.73 130.449C496.904 130.984 499.128 131.289 501.366 131.36L547 132.804L620.5 129.444L684 123.468L723.599 120.909C726.19 120.742 728.792 120.89 731.347 121.351L747.691 124.302C754.893 125.602 762.309 123.8 768.112 119.342V119.342C774.075 114.76 781.732 112.99 789.101 114.491L810.5 118.848L831.26 122.4C835.38 123.105 839.598 122.996 843.676 122.08L855.675 119.382C859.52 118.518 863.153 116.894 866.362 114.607L877.251 106.845C882.605 103.028 889.924 103.592 894.631 108.183V108.183C897.973 111.443 902.754 112.76 907.293 111.67L923.152 107.864C926.365 107.093 929.438 105.83 932.264 104.118L951.326 92.5716C956.97 89.1527 963.534 87.5624 970.117 88.0184L1002.92 90.2907C1006.61 90.5466 1010.32 90.1598 1013.88 89.1476L1052.57 78.1486C1056.49 77.035 1060.58 76.6793 1064.63 77.1006L1136.01 84.5246C1138.99 84.8344 1142 84.7246 1144.94 84.1984L1206.62 73.19C1208.87 72.7886 1211.15 72.6291 1213.43 72.7143L1254.87 74.261C1256.76 74.3313 1258.65 74.2348 1260.51 73.9724L1338.5 63.0237L1386 53.4611C1406.94 50.3993 1416.5 49 1440 49C1457.15 49 1449.27 129.445 1443.75 172.902C1441.77 188.55 1428.37 200 1412.59 200H32C14.3269 200 0 185.673 0 168L0 49Z" fill="#86A89C"/>
<path d="M0 76C7.62843 76 19.9267 80.8507 23.4979 82.3292C24.1702 82.6075 24.8231 82.9197 25.4689 83.255L60.3695 101.381C66.3068 104.465 73.0613 105.61 79.6832 104.656L126.831 97.8615C132.506 97.0436 138.297 97.7656 143.597 99.9521L171.908 111.63C180.246 115.069 189.648 114.83 197.801 110.971L212.216 104.148C220.066 100.432 229.089 100.066 237.214 103.135L269.459 115.315C275.824 117.719 282.926 117.184 288.859 113.853V113.853C294.666 110.592 301.601 110.007 307.872 112.249L335.781 122.224C341.349 124.214 347.489 123.835 352.77 121.175V121.175C358.028 118.527 364.138 118.139 369.688 120.101L422.501 138.768C429.3 141.172 436.712 141.208 443.535 138.871L444.845 138.422C452.347 135.852 460.535 136.159 467.824 139.284L480.832 144.86C485.35 146.797 490.512 146.517 494.793 144.102V144.102C501.088 140.553 508.99 141.736 513.97 146.973L518.842 152.097C523.125 156.601 528.939 159.336 535.14 159.764L620.444 165.641C622.477 165.781 624.518 165.726 626.54 165.478L684.041 158.424C686.009 158.182 687.951 157.758 689.841 157.157L728.785 144.774C733.53 143.265 738.561 142.884 743.478 143.662L770.91 147.998C778.089 149.133 785.44 147.79 791.754 144.191L792.791 143.6C799.078 140.016 806.393 138.669 813.544 139.778L830.295 142.377C837.238 143.454 844.343 142.216 850.512 138.854L863.936 131.54C868.89 128.84 874.471 127.498 880.112 127.65L958 129.755L1072.59 122.036C1075.84 121.816 1079.05 121.101 1082.08 119.913L1172.08 84.7466C1178.83 82.11 1186.27 81.8408 1193.19 83.983L1248.28 101.039C1254.6 102.995 1261.38 102.944 1267.67 100.893L1291.65 93.0712C1297.74 91.0849 1304.29 90.9725 1310.45 92.7486L1354.73 105.526C1363.49 108.054 1372.91 106.724 1380.63 101.871L1406.5 85.6084L1421.77 78.7845C1425.88 76.9488 1430.33 76 1434.82 76H1440V168C1440 185.673 1425.67 200 1408 200H29.7616C12.9873 200 -0.932483 187.065 -1.86436 170.316C-3.90542 133.633 -6.13573 76 0 76Z" fill="#568674"/>
</g>
<path d="M0 97L73.9541 102.022C78.0695 102.301 82.0922 103.374 85.8005 105.18L155.876 139.318C161.976 142.289 168.862 143.245 175.54 142.047L259.711 126.95C264.092 126.164 268.589 126.301 272.915 127.352L397.604 157.645L474.528 166.73H542.873C544.46 166.73 546.045 166.848 547.615 167.083L623.73 178.488L683.737 184.404C687.078 184.733 690.45 184.535 693.729 183.816L727.935 176.317C731.069 175.63 734.081 174.476 736.871 172.894L759.935 159.811C766.651 156.002 774.517 154.749 782.084 156.284L797.442 159.399C804.565 160.844 811.97 159.442 818.072 155.494V155.494C828.121 148.993 839.489 144.804 851.355 143.233L894.505 137.516C907.081 135.85 919.847 136.277 932.285 138.779L953.497 143.045C983.578 149.096 1014.83 142.875 1040.3 125.766L1043.98 123.291C1059.9 112.6 1078.23 106.058 1097.32 104.26L1110.04 103.063C1122.7 101.87 1135.46 102.785 1147.82 105.77L1210.26 120.852C1217.88 122.692 1225.9 121.674 1232.82 117.991L1248.55 109.613C1254.5 106.443 1261.3 105.234 1267.98 106.16L1343.99 116.697C1344.29 116.739 1344.58 116.775 1344.88 116.804C1348.63 117.156 1375.57 119.285 1396 110C1418 100 1429.5 97 1439 97C1448.5 97 1440 97 1440 97V200H1068.24H0V97Z" fill="#0D5239"/>
<path d="M492 146L505 138L518 146V167H492V146Z" fill="#AA3C3C"/>
<path d="M473 146L486 138L499 146V167H473V146Z" fill="#BE5A5A"/>
<path d="M486 138H505.25L518.25 146H499L486 138Z" fill="#DD9D9D"/>
<path d="M479 133H482V147L484 149V167H479L479 133Z" fill="#B7B7B7"/>
<path d="M476 133.5L479 133V147L481 149V167H476V133.5Z" fill="#D9D9D9"/>
</g>
<defs>
<clipPath id="clip0_360_918">
<rect width="1440" height="200" fill="white"/>
</clipPath>
</defs>
</svg>
